<?xml version="1.0" encoding="UTF-8"?><svg style="fill:white;" id="a" xmlns="http://www.w3.org/2000/svg" viewBox="0 0 450 62.51"><path d="M91.04,45.99c-7.07,0-11.48-5.54-11.48-12.11s4.41-12.11,11.48-12.11c5.72,0,9.59,3.74,10.62,8.6h-5.76c-.76-2.16-2.57-3.47-4.86-3.47-3.56,0-5.9,2.79-5.9,6.98s2.34,6.98,5.9,6.98c2.39,0,4.23-1.39,4.95-3.69h5.72c-.94,5-4.86,8.82-10.67,8.82Z"/><path d="M115.01,45.99c-7.16,0-11.61-5.54-11.61-12.11s4.46-12.11,11.61-12.11,11.61,5.54,11.61,12.11c0,6.57-4.46,12.11-11.61,12.11ZM109.02,33.88c0,4.19,2.43,6.98,5.99,6.98s5.94-2.79,5.94-6.98-2.43-6.98-5.94-6.98c-3.55,0-5.99,2.79-5.99,6.98Z"/><path d="M143.81,31.67c0-1.76-.45-2.79-1.21-3.6-.72-.72-1.8-1.17-3.06-1.17-1.35,0-2.43.45-3.15,1.17-.76.81-1.21,1.85-1.21,3.6v13.68h-5.63v-22.96h5.4v1.66c1.4-1.4,3.33-2.3,5.81-2.3,2.7,0,4.86.99,6.39,2.7,1.44,1.53,2.3,3.65,2.3,6.89v14h-5.63v-13.68h0Z"/><path d="M161.64,45.67c-2.7,0-4.14-.67-5.09-1.8-.81-.95-1.21-2.25-1.21-4.55v-12.06h-4.91v-4.86h5.04v-7.2h5.45v7.2h5.4v4.86h-5.4v11.21c0,1.39.27,2.07,1.76,2.07h3.65v5.13h-4.68Z"/><path d="M178.2,45.99c-6.98,0-11.34-5.54-11.34-12.11s4.23-12.11,11.03-12.11,11.03,5.54,11.03,12.11c0,.68-.04,1.3-.13,1.85h-16.38c.36,3.24,2.57,5.36,5.81,5.36,2.3,0,4.05-1.17,4.82-3.11h5.49c-1.17,4.59-4.91,8.01-10.31,8.01ZM172.4,31.49h10.98c-.36-2.97-2.48-5-5.45-5s-5.18,2.03-5.54,5Z"/><path d="M206.09,31.67c0-1.76-.45-2.79-1.21-3.6-.72-.72-1.8-1.17-3.06-1.17-1.35,0-2.43.45-3.15,1.17-.77.81-1.21,1.85-1.21,3.6v13.68h-5.63v-22.96h5.4v1.66c1.4-1.4,3.33-2.3,5.81-2.3,2.7,0,4.86.99,6.39,2.7,1.44,1.53,2.3,3.65,2.3,6.89v14h-5.63v-13.68h0Z"/><path d="M223.92,45.67c-2.7,0-4.14-.67-5.09-1.8-.81-.95-1.21-2.25-1.21-4.55v-12.06h-4.9v-4.86h5.04v-7.2h5.45v7.2h5.4v4.86h-5.4v11.21c0,1.39.27,2.07,1.76,2.07h3.65v5.13h-4.68Z"/><path d="M250.21,45.99c-7.07,0-11.48-5.54-11.48-12.11s4.41-12.11,11.48-12.11c5.72,0,9.59,3.74,10.62,8.6h-5.76c-.77-2.16-2.57-3.47-4.86-3.47-3.56,0-5.9,2.79-5.9,6.98s2.34,6.98,5.9,6.98c2.39,0,4.23-1.39,4.95-3.69h5.72c-.95,5-4.86,8.82-10.67,8.82Z"/><path d="M263.6,45.36v-22.96h5.4v2.48c1.26-1.66,3.24-2.75,6.21-2.75h1.4v5.31h-1.44c-2.02,0-3.29.45-4.23,1.3-1.08.9-1.71,2.38-1.71,4.64v11.97h-5.63Z"/><path d="M288.34,45.99c-6.98,0-11.34-5.54-11.34-12.11s4.23-12.11,11.03-12.11,11.03,5.54,11.03,12.11c0,.68-.05,1.3-.14,1.85h-16.38c.36,3.24,2.57,5.36,5.81,5.36,2.3,0,4.05-1.17,4.82-3.11h5.49c-1.17,4.59-4.91,8.01-10.31,8.01ZM282.53,31.49h10.98c-.36-2.97-2.48-5-5.45-5s-5.18,2.03-5.54,5Z"/><path d="M318.2,45.36v-2.07c-1.67,1.67-3.92,2.7-6.62,2.7-6.57,0-10.67-5.63-10.67-12.11s4.1-12.11,10.67-12.11c2.61,0,4.77.95,6.43,2.48v-11.3h5.63v32.41h-5.45ZM306.55,33.88c0,4.14,2.39,6.98,5.94,6.98s5.94-2.84,5.94-6.98-2.39-6.98-5.94-6.98-5.94,2.84-5.94,6.98Z"/><path d="M337.5,45.99c-6.98,0-11.34-5.54-11.34-12.11s4.23-12.11,11.03-12.11,11.03,5.54,11.03,12.11c0,.68-.05,1.3-.14,1.85h-16.38c.36,3.24,2.57,5.36,5.81,5.36,2.3,0,4.05-1.17,4.82-3.11h5.49c-1.17,4.59-4.91,8.01-10.31,8.01ZM331.69,31.49h10.98c-.36-2.97-2.48-5-5.45-5s-5.18,2.03-5.54,5Z"/><path d="M364.93,31.67c0-1.76-.45-2.79-1.21-3.6-.72-.72-1.8-1.17-3.06-1.17-1.35,0-2.43.45-3.15,1.17-.76.81-1.21,1.85-1.21,3.6v13.68h-5.63v-22.96h5.4v1.66c1.4-1.4,3.33-2.3,5.81-2.3,2.7,0,4.86.99,6.39,2.7,1.44,1.53,2.3,3.65,2.3,6.89v14h-5.63v-13.68h0Z"/><path d="M383.15,45.67c-2.7,0-4.14-.67-5.09-1.8-.81-.95-1.21-2.25-1.21-4.55v-12.06h-4.91v-4.86h5.04v-7.2h5.45v7.2h5.4v4.86h-5.4v11.21c0,1.39.27,2.07,1.76,2.07h3.64v5.13h-4.68Z"/><path d="M389.89,45.36v-22.96h5.63v22.96h-5.63ZM389.8,19.65v-6.03h5.81v6.03h-5.81Z"/><path d="M406.82,45.99c-5.09,0-8.33-3.15-8.33-7.02,0-5.4,3.96-6.8,9.05-7.34l2.16-.27c1.21-.13,2.2-.27,3.11-.45v-.49c0-1.4-.4-2.3-1.04-2.93-.67-.63-1.71-.99-2.93-.99-2.39,0-3.96,1.21-4.1,3.15h-5.49c.18-4.32,3.78-7.88,9.63-7.88,2.84,0,5.18.85,6.75,2.16,2.03,1.66,2.66,3.51,2.66,6.35v10.26c0,2.03.05,3.65.09,5.09v.05h-5.09l-.09-2.16c-1.21,1.53-3.47,2.48-6.39,2.48ZM404.07,38.92c0,1.67,1.44,2.7,3.69,2.7,1.62,0,2.97-.49,3.78-1.3.81-.77,1.26-1.8,1.26-3.56v-1.66c-1.08.27-1.71.36-2.88.54l-1.62.27c-2.11.36-4.23.76-4.23,3.01Z"/><path d="M422,45.36V12.95h5.63v32.41h-5.63Z"/><path d="M440.32,45.99c-6.17,0-9.68-3.51-10.04-7.65h5.63c.45,1.98,2.07,2.97,4.41,2.97s4.1-.9,4.1-2.52c0-1.26-.95-1.71-2.52-2.03l-4.36-.85c-4.73-.9-6.66-3.47-6.66-6.89,0-3.69,3.33-7.25,9.09-7.25s9.14,3.51,9.36,7.38h-5.58c-.32-1.76-1.71-2.7-3.83-2.7s-3.51.85-3.51,2.25c0,1.08.77,1.66,2.39,1.93l4.37.85c4.64.9,6.84,3.33,6.84,6.98,0,3.92-3.56,7.52-9.68,7.52Z"/><path d="M23.73,45.99c-7.07,0-11.48-5.54-11.48-12.11s4.41-12.11,11.48-12.11c5.72,0,9.59,3.74,10.62,8.6h-5.76c-.76-2.16-2.57-3.47-4.86-3.47-3.56,0-5.9,2.79-5.9,6.98s2.34,6.98,5.9,6.98c2.38,0,4.23-1.39,4.95-3.69h5.72c-.94,5-4.86,8.82-10.67,8.82Z"/><path d="M36.67,45.36v-22.96h5.4v2.48c1.26-1.66,3.24-2.75,6.21-2.75h1.39v5.31h-1.44c-2.03,0-3.29.45-4.23,1.3-1.08.9-1.71,2.39-1.71,4.64v11.97h-5.63Z"/><path d="M62.52,62.51h-31.26C14.02,62.51,0,48.49,0,31.26S14.02,0,31.26,0s31.26,14.02,31.26,31.26v31.25ZM31.26,5.42c-14.25,0-25.84,11.59-25.84,25.84s11.59,25.84,25.84,25.84h25.85v-25.83c0-14.25-11.59-25.84-25.84-25.84Z"/></svg>